<svg xmlns="http://www.w3.org/2000/svg" xmlns:svg="http://www.w3.org/2000/svg" id="svg7384" width="16" height="16" version="1.1"><metadata id="metadata90"/><title id="title9167">Gnome Symbolic Icon Theme</title><g id="layer13" transform="translate(-501.0002,-195)"><path font-size="medium" style="text-indent:0;text-align:start;line-height:normal;text-transform:none;marker:none;-inkscape-font-specification:Andale Mono" id="path11142" fill="#2e3436" fill-opacity="1" fill-rule="nonzero" stroke="none" stroke-width="1.781" d="m 503.0002,203.00315 0,1 c -1.2e-4,0.0104 -4.6e-4,0.0208 0,0.0313 0.0112,0.25495 0.12858,0.50987 0.3125,0.6875 l 5.21875,5.28125 5.1875,-5.28125 c 0.18819,-0.18821 0.28125,-0.45351 0.28125,-0.7188 l 0,-1 -1,0 c -0.26529,0 -0.53058,0.0931 -0.71875,0.28125 l -3.75,3.8125 -3.78125,-3.8125 c -0.19463,-0.21074 -0.46925,-0.30316 -0.75,-0.28125 l -1,0 z" color="#2e3436" direction="ltr" display="inline" font-family="Andale Mono" font-stretch="normal" font-style="normal" font-variant="normal" font-weight="normal" letter-spacing="normal" overflow="visible" text-anchor="start" text-decoration="none" visibility="visible" word-spacing="normal"/><path d="m 269.05412,-13.455417 c 0,0.842068 -0.68263,1.524699 -1.5247,1.524699 -0.84207,0 -1.5247,-0.682631 -1.5247,-1.524699 0,-0.842068 0.68263,-1.524699 1.5247,-1.524699 0.84207,0 1.5247,0.682631 1.5247,1.524699 z" style="marker:none" id="path11168" fill="#2e3436" fill-opacity="1" fill-rule="evenodd" stroke="none" stroke-width="1" color="#000" display="inline" overflow="visible" transform="translate(241.0002,215)" visibility="visible"/><path d="m 269.05412,-13.455417 c 0,0.842068 -0.68263,1.524699 -1.5247,1.524699 -0.84207,0 -1.5247,-0.682631 -1.5247,-1.524699 0,-0.842068 0.68263,-1.524699 1.5247,-1.524699 0.84207,0 1.5247,0.682631 1.5247,1.524699 z" style="marker:none" id="path11170" fill="#2e3436" fill-opacity="1" fill-rule="evenodd" stroke="none" stroke-width="1" color="#000" display="inline" overflow="visible" transform="translate(241.0002,211)" visibility="visible"/></g></svg>