<svg xmlns="http://www.w3.org/2000/svg" width="16" height="16" version="1.1"><metadata/><g><path fill="#2e3436" d="m8 1c-3.8537 0-7 3.1464-7 7 0 3.8537 3.1463 7 7 7s7-3.1463 7-7c0-3.8536-3.146-7-7-7zm-1 2.125v2.875h2v-2.875c1.956 0.3961 3.479 1.9191 3.875 3.875h-2.875v2h2.875c-0.396 1.956-1.919 3.479-3.875 3.875v-2.875h-2v2.875c-1.9558-0.396-3.4789-1.919-3.875-3.875h2.875v-2h-2.875c0.3961-1.9559 1.9192-3.4789 3.875-3.875zm1 3.875c-0.554 0-1 0.446-1 1s0.446 1 1 1 1-0.446 1-1-0.446-1-1-1z" color="#000" style="block-progression:tb;text-transform:none;text-indent:0"/></g></svg>