<svg xmlns="http://www.w3.org/2000/svg" width="16" height="16" version="1.1"><metadata/><title>Gnome Symbolic Icon Theme</title><g fill="#2e3436"><path d="m85 404c-0.554 0-1.1892 0.47931-1 1v5h10v-5c0-0.554-0.446-1-1-1z" color="#2e3436" transform="translate(-81 -397)"/><path style="block-progression:tb;text-transform:none;text-indent:0" d="m88 399c-1.6447 0-3 1.3553-3 3v4c0 1.6447 1.3553 3 3 3h2c1.6447 0 3-1.3553 3-3v-4c0-1.6447-1.3553-3-3-3h-2zm0 2h2c0.5713 0 1 0.4287 1 1v4c0 0.5713-0.4287 1-1 1h-2c-0.5713 0-1-0.4287-1-1v-4c0-0.5713 0.4287-1 1-1z" color="#2e3436" transform="translate(-81 -397)"/></g></svg>