<svg xmlns="http://www.w3.org/2000/svg" width="16" height="16" version="1.1"><metadata/><g><path fill="#2e3436" d="m2 1c-0.554 0-1 0.446-1 1v4c0 0.554 0.446 1 1 1h6c0.554 0 1-0.446 1-1v-4c0-0.554-0.446-1-1-1h-6zm10 0c-0.554 0-1 0.446-1 1v4c0 0.554 0.446 1 1 1h2c0.554 0 1-0.446 1-1v-4c0-0.554-0.446-1-1-1h-2zm-10 8c-0.554 0-1 0.446-1 1v3c0 0.554 0.446 1 1 1h3c0.554 0 1-0.446 1-1v-3c0-0.554-0.446-1-1-1h-3zm7 0c-0.554 0-1 0.446-1 1v3c0 0.554 0.446 1 1 1h5c0.554 0 1-0.446 1-1v-3c0-0.554-0.446-1-1-1h-5z"/></g></svg>