<svg xmlns="http://www.w3.org/2000/svg" width="16" height="16" version="1.1"><metadata/><g><g fill="#a7aba7"><path d="m-176 1086.7c-0.554 0-1 0.446-1 1v4c0 0.554 0.446 1 1 1h6c0.554 0 1-0.446 1-1v-4c0-0.554-0.446-1-1-1h-6z" opacity=".35" transform="translate(178 -1085.7)"/><path d="m-166 1086.7c-0.554 0-1 0.446-1 1v4c0 0.554 0.446 1 1 1h2c0.554 0 1-0.446 1-1v-4c0-0.554-0.446-1-1-1h-2z" opacity=".35" transform="translate(178 -1085.7)"/><path d="m-176 1094.7c-0.554 0-1 0.446-1 1v3c0 0.554 0.446 1 1 1h3c0.554 0 1-0.446 1-1v-3c0-0.554-0.446-1-1-1h-3z" opacity=".35" transform="translate(178 -1085.7)"/><path d="m-169 1094.7c-0.554 0-1 0.446-1 1v3c0 0.554 0.446 1 1 1h5c0.554 0 1-0.446 1-1v-3c0-0.554-0.446-1-1-1h-5z" opacity=".35" transform="translate(178 -1085.7)"/></g></g></svg>