<svg xmlns="http://www.w3.org/2000/svg" xmlns:svg="http://www.w3.org/2000/svg" id="svg2" width="16" height="16" version="1.1"><metadata id="metadata8"/><g id="g10"><path id="path14" fill="#2e3436" fill-opacity="1" d="M 2,1 C 1.446,1 1,1.446 1,2 V 6 C 1,6.554 1.446,7 2,7 H 8 C 8.554,7 9,6.554 9,6 V 2 C 9,1.446 8.554,1 8,1 H 2 z" opacity="1"/><path id="path16" fill="#2e3436" d="m 12,1 c -0.554,0 -1,0.446 -1,1 v 4 c 0,0.554 0.446,1 1,1 h 2 c 0.554,0 1,-0.446 1,-1 V 2 C 15,1.446 14.554,1 14,1 h -2 z" opacity="1"/><path id="path18" fill="#2e3436" d="M 2,9 C 1.446,9 1,9.446 1,10 v 3 c 0,0.554 0.446,1 1,1 h 3 c 0.554,0 1,-0.446 1,-1 V 10 C 6,9.446 5.554,9 5,9 H 2 z" opacity="1"/><path id="path20" fill="#2e3436" d="M 9,9 C 8.446,9 8,9.446 8,10 v 3 c 0,0.554 0.446,1 1,1 h 5 c 0.554,0 1,-0.446 1,-1 V 10 C 15,9.446 14.554,9 14,9 H 9 z" opacity=".35"/></g></svg>