<svg xmlns="http://www.w3.org/2000/svg" xmlns:svg="http://www.w3.org/2000/svg" id="svg7384" width="16" height="16" version="1.1"><metadata id="metadata90"/><title id="title9167">Gnome Symbolic Icon Theme</title><g id="layer12" transform="translate(-219.99995,-606)"><path id="path4222" fill="#2e3436" fill-opacity="1" stroke="none" stroke-width="1.975" d="m 228.00729,607.02074 c -3.86004,0 -7.00729,3.16598 -7.00729,7.01026 0,3.84428 3.14725,6.97868 7.00729,6.97868 3.86004,0 7.00729,-3.1344 7.00729,-6.97868 0,-3.84428 -3.14725,-7.01026 -7.00729,-7.01026 z m 0,2.02098 c 2.77694,0 5.00973,2.22368 5.00973,4.98928 0,2.7656 -2.23279,4.9577 -5.00973,4.9577 -2.77695,0 -5.00974,-2.1921 -5.00974,-4.9577 0,-2.7656 2.23279,-4.98928 5.00974,-4.98928 z" baseline-shift="baseline" color="#000" direction="ltr" display="inline" enable-background="accumulate" font-family="Sans" font-size="medium" font-stretch="normal" font-style="normal" font-variant="normal" font-weight="normal" letter-spacing="normal" overflow="visible" text-anchor="start" text-decoration="none" visibility="visible" word-spacing="normal" writing-mode="lr-tb" style="text-indent:0;text-align:start;line-height:normal;text-transform:none;block-progression:tb;marker:none;-inkscape-font-specification:Sans"/><path id="path4992" fill="#2e3436" fill-opacity="1" stroke="none" stroke-width="2" d="m 231.40625,609.4375 -8,8 1.40625,1.40625 8,-8 -1.40625,-1.40625 z" baseline-shift="baseline" color="#000" direction="ltr" display="inline" enable-background="accumulate" font-family="Sans" font-size="medium" font-stretch="normal" font-style="normal" font-variant="normal" font-weight="normal" letter-spacing="normal" overflow="visible" text-anchor="start" text-decoration="none" visibility="visible" word-spacing="normal" writing-mode="lr-tb" style="text-indent:0;text-align:start;line-height:normal;text-transform:none;block-progression:tb;marker:none;-inkscape-font-specification:Sans"/></g></svg>