<svg xmlns="http://www.w3.org/2000/svg" xmlns:svg="http://www.w3.org/2000/svg" xmlns:xlink="http://www.w3.org/1999/xlink" id="svg6200" width="1093" height="1186" version="1.1"><metadata id="metadata6206"/><defs id="defs6204"><linearGradient id="linearGradient7019"><stop id="stop7023" offset="0" stop-color="#faf4fa" stop-opacity="1"/><stop id="stop7021" offset="1" stop-color="#e2c5e3" stop-opacity=".248"/></linearGradient><linearGradient id="linearGradient7866"><stop id="stop7868" offset="0" stop-color="#fff" stop-opacity="1"/><stop id="stop7870" offset="1" stop-color="#fff" stop-opacity="0"/></linearGradient><linearGradient id="linearGradient7515"><stop id="stop7517" offset="0" stop-color="#fff" stop-opacity="1"/><stop id="stop7519" offset="1" stop-color="#fff" stop-opacity="0"/></linearGradient><clipPath id="clipPath7489" clipPathUnits="userSpaceOnUse"><path font-size="medium" style="text-indent:0;text-align:start;line-height:normal;text-transform:none;block-progression:tb;marker:none;-inkscape-font-specification:Sans" id="path7491" fill="#e2c5e3" fill-opacity=".607" stroke="#9200a0" stroke-opacity=".192" stroke-width="1" d="m 83.34375,134.3125 c -38.80207,0 -70.4375,31.60418 -70.4375,70.40625 0,38.80207 31.635432,70.4375 70.4375,70.4375 38.80207,0 70.40625,-31.63543 70.40625,-70.4375 0,-38.80207 -31.60418,-70.40625 -70.40625,-70.40625 z m 0,15.96875 c 13.177075,0 25.23367,4.63949 34.625,12.375 l -76.6875,76.65625 c -7.726196,-9.39368 -12.375,-21.42548 -12.375,-34.59375 0,-30.15503 24.282474,-54.4375 54.4375,-54.4375 z m 45.34375,24.28125 c 5.72321,8.62171 9.0625,18.98538 9.0625,30.15625 0,30.15503 -24.25122,54.4375 -54.40625,54.4375 -11.185664,0 -21.558995,-3.35252 -30.1875,-9.09375 l 75.53125,-75.5 z" baseline-shift="baseline" color="#000" direction="ltr" display="inline" enable-background="accumulate" font-family="Sans" font-stretch="normal" font-style="normal" font-variant="normal" font-weight="normal" letter-spacing="normal" overflow="visible" text-anchor="start" text-decoration="none" visibility="visible" word-spacing="normal" writing-mode="lr-tb"/></clipPath><linearGradient id="linearGradient7521" x1="46.315" x2="102.177" y1="133.027" y2="260.66" gradientUnits="userSpaceOnUse" xlink:href="#linearGradient7515"/><linearGradient id="linearGradient7536" x1="46.315" x2="102.177" y1="133.027" y2="260.66" gradientUnits="userSpaceOnUse" xlink:href="#linearGradient7515"/><linearGradient id="linearGradient7548" x1="46.315" x2="102.177" y1="133.027" y2="260.66" gradientUnits="userSpaceOnUse" xlink:href="#linearGradient7515"/><linearGradient id="linearGradient7568" x1="46.315" x2="102.177" y1="133.027" y2="260.66" gradientUnits="userSpaceOnUse" xlink:href="#linearGradient7515"/><linearGradient id="linearGradient7578" x1="46.315" x2="102.177" y1="133.027" y2="260.66" gradientUnits="userSpaceOnUse" xlink:href="#linearGradient7515"/><linearGradient id="linearGradient7587" x1="46.315" x2="102.177" y1="133.027" y2="260.66" gradientTransform="matrix(1.0059862,0,0,1.0059862,188.15212,-23.772197)" gradientUnits="userSpaceOnUse" xlink:href="#linearGradient7515"/><filter id="filter7720" color-interpolation-filters="sRGB"><feGaussianBlur id="feGaussianBlur7722" stdDeviation="2.465"/></filter><filter id="filter7724" color-interpolation-filters="sRGB"><feGaussianBlur id="feGaussianBlur7726" stdDeviation="2.51"/></filter><linearGradient id="linearGradient7813" x1="39.795" x2="121.269" y1="170.538" y2="245.034" gradientTransform="matrix(1.0059862,0,0,1.0059862,188.15212,-23.772197)" gradientUnits="userSpaceOnUse" xlink:href="#linearGradient7515"/><filter id="filter7854" color-interpolation-filters="sRGB"><feGaussianBlur id="feGaussianBlur7856" stdDeviation="3"/></filter><clipPath id="clipPath7860" clipPathUnits="userSpaceOnUse"><path d="M 98.999996,87.000001 161.1127,87.046679 205,131 204.95332,193.1127 161,237 98.887305,236.95332 55.000001,193 l 0.04668,-62.1127 z" style="marker:none" id="path7862" fill="#d8001d" fill-opacity=".206" fill-rule="nonzero" stroke="#d8001d" stroke-opacity="1" stroke-width="1" color="#000" display="inline" enable-background="accumulate" overflow="visible" visibility="visible"/></clipPath><linearGradient id="linearGradient7872" x1="90.66" x2="160.155" y1="95.328" y2="183.74" gradientUnits="userSpaceOnUse" xlink:href="#linearGradient7866"/><filter id="filter7894"><feGaussianBlur id="feGaussianBlur7896" stdDeviation="2.625"/></filter><radialGradient id="radialGradient7027" cx="251.354" cy="130.456" r="72.482" fx="251.354" fy="130.456" gradientTransform="matrix(0.3036305,1.040892,-1.0715901,0.31258526,314.82994,-171.95484)" gradientUnits="userSpaceOnUse" xlink:href="#linearGradient7019"/></defs><path id="path6203" fill="#9200a0" fill-opacity="1" stroke="none" stroke-width="6" d="m -212.35056,177.03801 c -15.34473,0 -27.7745,12.42977 -27.7745,27.77449 0,4.68875 1.17754,9.09063 3.22841,12.96485 l 37.56217,-37.56219 c -3.87533,-2.05238 -8.32547,-3.17715 -13.01608,-3.17715 z m 24.59732,14.80964 -37.56217,37.56219 c 3.87379,2.05027 8.27682,3.17715 12.96485,3.17715 15.34471,0 27.82573,-12.42977 27.82573,-27.77449 0,-4.67436 -1.18927,-9.0992 -3.22841,-12.96485 z" color="#000" display="inline" enable-background="accumulate" opacity=".2" overflow="visible" visibility="visible" style="marker:none"/><path id="path6207" fill="#9200a0" fill-opacity="1" stroke="none" stroke-width="6" d="m -214.06913,183.97887 c -10.46149,0 -18.93566,8.47418 -18.93566,18.93566 0,3.19662 0.8028,6.19767 2.20101,8.83897 l 25.60855,-25.60856 c -2.64206,-1.39924 -5.67601,-2.16607 -8.8739,-2.16607 z" color="#000" display="inline" enable-background="accumulate" overflow="visible" visibility="visible" style="marker:none"/><path id="path6165" fill="#9200a0" fill-opacity="1" stroke="none" stroke-width="6" d="m -193.10097,197.19539 -25.60855,25.60856 c 2.64101,1.3978 5.64284,2.16607 8.83897,2.16607 10.46148,0 18.97059,-8.47418 18.97059,-18.93566 0,-3.18681 -0.8108,-6.20351 -2.20101,-8.83897 z" color="#000" display="inline" enable-background="accumulate" overflow="visible" visibility="visible" style="marker:none"/><path id="path6192" fill="none" stroke="#9200a0" stroke-opacity="1" stroke-width="6" d="m -171.83787,175.62832 c 10.91578,7.27674 18.84227,17.43786 22.03125,29.0625 -6.39635,23.36897 -31.91122,40.87497 -62.4375,40.87497 -8.97443,0 -17.5003,-1.551 -25.25,-4.2812 m -15.15625,-7.4688 c -10.93341,-7.2923 -18.84447,-17.48216 -22.03125,-29.12497 6.40744,-23.35672 31.92185,-40.8125 62.4375,-40.8125 8.98203,0 17.52552,1.52003 25.28125,4.25" color="#000" display="inline" enable-background="accumulate" overflow="visible" visibility="visible" style="marker:none"/><path id="path7563" fill="none" stroke="#9200a0" stroke-opacity="1" stroke-width="2" d="m -225.39623,229.50026 c 4.15942,2.38207 7.93168,3.74975 13.07128,3.74975 15.71301,0 28.4375,-12.72449 28.4375,-28.43752 0,-5.13961 -1.56455,-8.715 -3.94662,-12.87442 m -11.58123,-11.63249 c -4.15942,-2.38206 -7.77004,-3.93059 -12.90965,-3.93059 -15.713,0 -28.4375,12.7245 -28.4375,28.4375 0,5.13961 1.40291,8.89589 3.78497,13.05528" color="#000" display="inline" enable-background="accumulate" overflow="visible" visibility="visible" style="marker:none"/><path id="path6172" fill="none" stroke="#f6f6f4" stroke-opacity="1" stroke-width="2" d="m -228.58786,201.60403 c 0,-7.71885 6.25685,-13.9757 13.9757,-13.9757" color="#000" display="inline" enable-background="accumulate" overflow="visible" visibility="visible" style="marker:none"/><path id="path39778" fill="none" stroke="#9200a0" stroke-linecap="butt" stroke-linejoin="miter" stroke-opacity="1" stroke-width="4" d="M -159.57898,152.05693 -265.07844,257.55639" opacity=".6"/><path id="path7448" fill="none" stroke="#e2c5e3" stroke-dasharray="none" stroke-dashoffset="0" stroke-linecap="round" stroke-linejoin="round" stroke-miterlimit="4" stroke-opacity="1" stroke-width="21.174" d="m 164.41507,203.38182 a 82.618187,82.618187 0 1 1 -165.23637432,0 82.618187,82.618187 0 1 1 165.23637432,0 z" color="#000" display="inline" enable-background="accumulate" overflow="visible" transform="matrix(0.75563184,0,0,0.75563184,-451.98181,51.040282)" visibility="visible" style="marker:none"/><path id="path7450" fill="none" stroke="#e2c5e3" stroke-linecap="butt" stroke-linejoin="miter" stroke-opacity="1" stroke-width="16" d="m -344.13502,162.55717 -88.20335,88.20335"/><rect id="rect6210" width="1093" height="593" x="0" y="0" fill="#f6f6f4" fill-opacity="1" fill-rule="nonzero" stroke="none" stroke-width="1.2" color="#000" display="inline" enable-background="accumulate" overflow="visible" visibility="visible" style="marker:none"/><path id="path7846" fill="#d8001d" fill-opacity=".206" fill-rule="nonzero" stroke="#d8001d" stroke-opacity=".455" stroke-width=".996" d="M 98.999996,87.000001 161.1127,87.046679 205,131 204.95332,193.1127 161,237 98.887305,236.95332 55.000001,193 l 0.04668,-62.1127 z" color="#000" display="inline" enable-background="accumulate" overflow="visible" transform="matrix(1.0038829,0,0,1.0038829,142.26471,58.172538)" visibility="visible" style="marker:none"/><path id="path7876" fill="none" stroke="#400009" stroke-opacity="1" stroke-width="1.992" d="M 98.999996,87.000001 161.1127,87.046679 205,131 204.95332,193.1127 161,237 98.887305,236.95332 55.000001,193 l 0.04668,-62.1127 z" color="#000" display="inline" enable-background="accumulate" filter="url(#filter7894)" opacity=".1" overflow="visible" transform="matrix(1.0038829,0,0,1.0038829,142.26471,62.172538)" visibility="visible" style="marker:none"/><flowRoot id="flowRoot6244" fill="#1f1f21" fill-opacity="1" fill-rule="nonzero" stroke="none" stroke-width="1.2" color="#000" display="inline" enable-background="accumulate" font-family="Cantarell" font-size="13" font-stretch="normal" font-style="normal" font-variant="normal" font-weight="bold" overflow="visible" text-anchor="start" transform="matrix(1.0082987,0,0,1.0082987,275.63503,31.063376)" visibility="visible" writing-mode="lr-tb" xml:space="preserve" style="text-align:start;marker:none;-inkscape-font-specification:Cantarell Bold"><flowRegion id="flowRegion6246"><rect id="rect6248" width="570.712" height="294.892" x="109.742" y="109.806"/></flowRegion><flowPara id="flowPara6250" fill="#d8001d" font-size="24">Reported Web Forgery!</flowPara><flowPara style="-inkscape-font-specification:Cantarell Bold" id="flowPara6254" fill="#3c3c40" fill-opacity="1" font-weight="bold"/><flowPara style="-inkscape-font-specification:Cantarell Medium" id="flowPara6266" fill="#3c3c40" fill-opacity="1" font-weight="500" word-spacing="0">This web page at www.mozilla.org has been reported as a web forgery and has been blocked based on your security preferences.</flowPara><flowPara id="flowPara6271" fill="#3c3c40" fill-opacity="1" font-weight="500" word-spacing="0" style="-inkscape-font-specification:Cantarell Medium"/><flowPara id="flowPara6273" fill="#3c3c40" fill-opacity="1" font-weight="500" word-spacing="0" style="-inkscape-font-specification:Cantarell Medium">Web forgeries are designed to trick you into revealing personal or financial information by imitating sources you may trust.</flowPara><flowPara id="flowPara6275" fill="#3c3c40" fill-opacity="1" font-weight="500" word-spacing="0" style="-inkscape-font-specification:Cantarell Medium"/><flowPara id="flowPara6277" fill="#3c3c40" fill-opacity="1" font-weight="500" word-spacing="0" style="-inkscape-font-specification:Cantarell Medium">Entering any information on this web page may result in identity theft or other fraud</flowPara><flowPara id="flowPara6281" fill="#3c3c40" fill-opacity="1" font-weight="500" word-spacing="0" style="-inkscape-font-specification:Cantarell Medium"/><flowPara style="-inkscape-font-specification:Cantarell Medium" id="flowPara6268" fill="#3c3c40" fill-opacity="1" font-weight="500"/><flowPara style="-inkscape-font-specification:Cantarell Medium" id="flowPara6270" fill="#2754d3" fill-opacity="1" font-weight="500">Learn More</flowPara></flowRoot><g id="g7757" transform="translate(0,593)"><rect id="rect7759" width="1093" height="593" x="0" y="0" fill="#f6f6f4" fill-opacity="1" fill-rule="nonzero" stroke="none" stroke-width="1.2" color="#000" display="inline" enable-background="accumulate" overflow="visible" visibility="visible" style="marker:none"/><flowRoot id="flowRoot7761" fill="#1f1f21" fill-opacity="1" fill-rule="nonzero" stroke="none" stroke-width="1.2" color="#000" display="inline" enable-background="accumulate" font-family="Cantarell" font-size="13" font-stretch="normal" font-style="normal" font-variant="normal" font-weight="bold" overflow="visible" text-anchor="start" transform="matrix(1.0082987,0,0,1.0082987,275.63503,31.063376)" visibility="visible" writing-mode="lr-tb" xml:space="preserve" style="text-align:start;marker:none;-inkscape-font-specification:Cantarell Bold"><flowRegion id="flowRegion7763"><rect id="rect7765" width="570.712" height="294.892" x="109.742" y="109.806"/></flowRegion><flowPara id="flowPara7767" fill="#9200a0" font-size="24">Private Browsing</flowPara><flowPara id="flowPara7769"/><flowPara style="-inkscape-font-specification:Cantarell Bold" id="flowPara7771" fill="#3c3c40" fill-opacity="1" font-weight="bold">Firefox won&apos;t remember any history for this window.</flowPara><flowPara style="-inkscape-font-specification:Cantarell Medium" id="flowPara7773" fill="#3c3c40" fill-opacity="1" font-weight="500"/><flowPara id="flowPara7775" fill="#3c3c40" fill-opacity="1" font-weight="500" style="-inkscape-font-specification:Cantarell Medium"/><flowPara style="-inkscape-font-specification:Cantarell Medium" id="flowPara7777" fill="#3c3c40" fill-opacity="1" font-weight="500">In a Private Browsing window, Firefox won&apos;t keep any browser history, search history, download history, web form history, cookies, or temporary internet files. However, files you download and bookmarks you make will be kept.</flowPara><flowPara style="-inkscape-font-specification:Cantarell Medium" id="flowPara7779" fill="#3c3c40" fill-opacity="1" font-weight="500"/><flowPara style="-inkscape-font-specification:Cantarell Medium" id="flowPara7781" fill="#3c3c40" fill-opacity="1" font-weight="500">To stop Private Browsing, you can close this window.</flowPara><flowPara style="-inkscape-font-specification:Cantarell Medium" id="flowPara7783" fill="#3c3c40" fill-opacity="1" font-weight="500"/><flowPara style="-inkscape-font-specification:Cantarell Medium" id="flowPara7785" fill="#3c3c40" fill-opacity="1" font-weight="500" word-spacing="0">While this computer won&apos;t have a record of your browsing history, your internet service provider or employer can still track the pages you visit.</flowPara><flowPara style="-inkscape-font-specification:Cantarell Medium" id="flowPara7787" fill="#3c3c40" fill-opacity="1" font-weight="500"/><flowPara style="-inkscape-font-specification:Cantarell Medium" id="flowPara7789" fill="#2754d3" fill-opacity="1" font-weight="500">Learn More</flowPara></flowRoot><g id="g7791" transform="translate(0,26)"><path id="path7793" fill="none" stroke="#1f1f21" stroke-opacity="1" stroke-width="1.946" d="m 271.99479,111.34432 c -39.03434,0 -70.85916,31.79338 -70.85916,70.82773 0,39.03435 31.82482,70.85914 70.85916,70.85914 39.03435,0 70.82772,-31.82479 70.82772,-70.85914 0,-39.03435 -31.79337,-70.82773 -70.82772,-70.82773 z" baseline-shift="baseline" clip-path="none" color="#000" direction="ltr" display="inline" enable-background="accumulate" filter="url(#filter7724)" font-family="Sans" font-size="medium" font-stretch="normal" font-style="normal" font-variant="normal" font-weight="normal" letter-spacing="normal" opacity=".1" overflow="visible" text-anchor="start" text-decoration="none" transform="matrix(1.027597,0,0,1.027597,-7.5057934,-1.0278268)" visibility="visible" word-spacing="normal" writing-mode="lr-tb" style="text-indent:0;text-align:start;line-height:normal;text-transform:none;block-progression:tb;marker:none;-inkscape-font-specification:Sans"/><g id="g7795" transform="translate(0.00165,0.0126)"><path id="path7797" fill="none" stroke="#9200a0" stroke-opacity="1" stroke-width="6" d="m 271.96866,152.26365 c -20.49238,0 -38.08598,12.3207 -45.74119,29.91149 7.65521,17.59078 25.24881,29.91149 45.74119,29.91149 20.49399,0 38.10443,-12.31851 45.75868,-29.91149 -7.65425,-17.59299 -25.26469,-29.91149 -45.75868,-29.91149 z" color="#000" display="inline" enable-background="accumulate" overflow="visible" visibility="visible" style="marker:none"/><path id="path7799" fill="#e2c5e3" fill-opacity="1" stroke="#9200a0" stroke-dasharray="none" stroke-dashoffset="0" stroke-linecap="round" stroke-linejoin="round" stroke-miterlimit="4" stroke-opacity="1" stroke-width="3.086" d="m 109.60155,203.38182 c 0,15.3561 -12.448577,27.80467 -27.804675,27.80467 -15.356098,0 -27.804674,-12.44857 -27.804674,-27.80467 0,-15.3561 12.448576,-27.80467 27.804674,-27.80467 15.356098,0 27.804675,12.44857 27.804675,27.80467 z" color="#000" display="inline" enable-background="accumulate" overflow="visible" transform="matrix(0.64811934,0,0,0.64811934,218.96326,50.359458)" visibility="visible" style="marker:none"/><path id="path7801" fill="#9200a0" fill-opacity="1" stroke="none" stroke-width="2" d="m 109.60155,203.38182 c 0,15.3561 -12.448577,27.80467 -27.804675,27.80467 -15.356098,0 -27.804674,-12.44857 -27.804674,-27.80467 0,-15.3561 12.448576,-27.80467 27.804674,-27.80467 15.356098,0 27.804675,12.44857 27.804675,27.80467 z" color="#000" display="inline" enable-background="accumulate" overflow="visible" transform="matrix(0.45948519,0,0,0.45948519,234.39294,88.724211)" visibility="visible" style="marker:none"/><path id="path7803" fill="none" stroke="#f6f6f4" stroke-linecap="round" stroke-opacity="1" stroke-width="5.292" d="m 53.992201,203.38182 c 0,-12.28728 8.065093,-23.11766 19.837087,-26.63865" color="#000" display="inline" enable-background="accumulate" overflow="visible" transform="matrix(0.37790115,0,0,0.37790115,241.06627,105.31691)" visibility="visible" style="marker:none"/></g><g id="g7805"><path font-size="medium" style="text-indent:0;text-align:start;line-height:normal;text-transform:none;block-progression:tb;marker:none;-inkscape-font-specification:Sans" id="path7807" fill="url(#radialGradient7027)" fill-opacity="1" stroke="#9200a0" stroke-opacity=".453" stroke-width="1" d="m 271.99502,110.20594 c -39.66158,0 -71.99777,32.30425 -71.99777,71.96583 0,39.66158 32.33619,71.99777 71.99777,71.99777 39.66159,0 71.96584,-32.33619 71.96584,-71.99777 0,-39.66158 -32.30425,-71.96583 -71.96584,-71.96583 z m 0,16.32247 c 13.46897,0 25.79263,4.74226 35.39199,12.64912 l -78.38622,78.35428 c -7.89734,-9.60176 -12.64912,-21.90008 -12.64912,-35.36004 0,-30.823 24.82036,-55.64336 55.64335,-55.64336 z m 46.34817,24.81911 c 5.84999,8.81269 9.26325,19.40593 9.26325,30.82425 0,30.823 -24.78842,55.64335 -55.61142,55.64335 -11.43344,0 -22.03655,-3.42678 -30.85619,-9.29518 l 77.20436,-77.17242 z" baseline-shift="baseline" color="#000" direction="ltr" display="inline" enable-background="accumulate" font-family="Sans" font-stretch="normal" font-style="normal" font-variant="normal" font-weight="normal" letter-spacing="normal" overflow="visible" text-anchor="start" text-decoration="none" visibility="visible" word-spacing="normal" writing-mode="lr-tb"/><path id="path7809" fill="none" stroke="#fff" stroke-opacity="1" stroke-width="2.935" d="m 83.34375,134.3125 c -38.80207,0 -70.4375,31.60418 -70.4375,70.40625 0,38.80207 31.635432,70.4375 70.4375,70.4375 38.80207,0 70.40625,-31.63543 70.40625,-70.4375 0,-38.80207 -31.60418,-70.40625 -70.40625,-70.40625 z m 0,15.96875 c 13.177075,0 25.23367,4.63949 34.625,12.375 l -76.6875,76.65625 c -7.726196,-9.39368 -12.375,-21.42548 -12.375,-34.59375 0,-30.15503 24.282474,-54.4375 54.4375,-54.4375 z m 45.34375,24.28125 c 5.72321,8.62171 9.0625,18.98538 9.0625,30.15625 0,30.15503 -24.25122,54.4375 -54.40625,54.4375 -11.185664,0 -21.558995,-3.35252 -30.1875,-9.09375 l 75.53125,-75.5 z" baseline-shift="baseline" clip-path="url(#clipPath7489)" color="#000" direction="ltr" display="inline" enable-background="accumulate" filter="url(#filter7720)" font-family="Sans" font-size="medium" font-stretch="normal" font-style="normal" font-variant="normal" font-weight="normal" letter-spacing="normal" overflow="visible" text-anchor="start" text-decoration="none" transform="matrix(1.0221512,0,0,1.0221512,186.80511,-27.081748)" visibility="visible" word-spacing="normal" writing-mode="lr-tb" style="text-indent:0;text-align:start;line-height:normal;text-transform:none;block-progression:tb;marker:none;-inkscape-font-specification:Sans"/><path id="path7811" fill="none" stroke="url(#linearGradient7813)" stroke-opacity="1" stroke-width="1" d="m 271.99479,111.34432 c -39.03434,0 -70.85916,31.79338 -70.85916,70.82773 0,39.03435 31.82482,70.85914 70.85916,70.85914 39.03435,0 70.82772,-31.82479 70.82772,-70.85914 0,-39.03435 -31.79337,-70.82773 -70.82772,-70.82773 z" baseline-shift="baseline" clip-path="none" color="#000" direction="ltr" display="inline" enable-background="accumulate" font-family="Sans" font-size="medium" font-stretch="normal" font-style="normal" font-variant="normal" font-weight="normal" letter-spacing="normal" overflow="visible" text-anchor="start" text-decoration="none" visibility="visible" word-spacing="normal" writing-mode="lr-tb" style="text-indent:0;text-align:start;line-height:normal;text-transform:none;block-progression:tb;marker:none;-inkscape-font-specification:Sans"/></g></g></g><path id="path7848" fill="none" stroke="#fff" stroke-opacity="1" stroke-width="2.995" d="M 98.999996,87.000001 161.1127,87.046679 205,131 204.95332,193.1127 161,237 98.887305,236.95332 55.000001,193 l 0.04668,-62.1127 z" clip-path="url(#clipPath7860)" color="#000" display="inline" enable-background="accumulate" filter="url(#filter7854)" overflow="visible" transform="matrix(1.0015257,0,0,1.0015257,142.57111,58.554374)" visibility="visible" style="marker:none"/><path id="path7864" fill="none" stroke="url(#linearGradient7872)" stroke-opacity="1" stroke-width="1.009" d="M 98.999996,87.000001 161.1127,87.046679 205,131 204.95332,193.1127 161,237 98.887305,236.95332 55.000001,193 l 0.04668,-62.1127 z" color="#000" display="inline" enable-background="accumulate" overflow="visible" transform="matrix(0.99096403,0,0,0.99096403,143.94413,60.265397)" visibility="visible" style="marker:none"/><g id="g7004"><path d="m 271.09619,182.28009 c -2.94799,0 -5.77859,2.66996 -5.77859,5.98645 l 0,2.95165 0,2.36964 0,20.8902 -0.72751,0 0,-21.13964 -0.0208,-2.1202 c -0.91648,-2.12693 -2.76745,-3.61681 -5.23811,-3.61681 -3.31649,0 -5.98644,2.66996 -5.98644,5.98645 l 0,16.69137 0,1.99548 0,21.26435 0,0 0,-21.26435 c -0.71858,-0.30313 -2.22589,-0.83145 -3.05558,-0.83145 -3.31649,0 -5.98645,2.66996 -5.98645,5.98644 l 0,12.03526 0,13.83713 c 15.69634,18.04164 43.92829,17.79557 56.93359,-0.20474 l 0,-4.27858 0,-9.35381 0,-31.88614 c 0,-3.31649 -2.66996,-5.98644 -5.98645,-5.98644 -3.31648,0 -5.98644,2.66995 -5.98644,5.98644 l 0,20.47448 -0.72752,0 0,-21.13964 0.0208,-2.96926 0,-1.06328 c 3e-5,-2.92496 -2.47944,-5.27971 -5.4044,-5.27971 -2.92495,0 -5.86172,2.66996 -5.86172,5.98645 l 0,20.26661 -0.72753,0 0,-21.13963 0.0623,-3.04404 0,-2.06939 c 0,-2.94799 -2.58116,-5.32129 -5.52915,-5.32129 z" style="marker:none" id="rect7898" fill="none" stroke="#d8001d" stroke-linecap="round" stroke-linejoin="round" stroke-opacity="1" stroke-width="6" color="#000" display="inline" enable-background="accumulate" overflow="visible" visibility="visible"/><path id="path7002" fill="none" stroke="#d8001d" stroke-linecap="round" stroke-linejoin="miter" stroke-opacity="1" stroke-width="1" d="m 272.25,251.01517 c 0.0902,0.54106 13.5507,0.86702 21.19703,-7.77984"/></g></svg>